<svg xmlns="http://www.w3.org/2000/svg" enable-background="new 0 0 64 64" viewBox="0 0 64 64" id="anxious-person"><path d="M21.9 42.78c-1.25 0-2.5-.31-3.64-.92-3.72-2-5.21-5.92-5.64-7.29-.21.01-.45-.01-.72-.13-.86-.37-1.5-1.48-1.92-3.3-.38-1.69-.23-2.85.43-3.47.36-.33.78-.42 1.13-.43-.49-4.58-1.01-11.24 7.67-12.74 1.78-.31 3.58-.31 5.35 0 8.68 1.5 8.16 8.15 7.66 12.74.35.01.78.11 1.13.43.67.61.81 1.78.43 3.46-.41 1.82-1.05 2.93-1.91 3.3-.27.12-.52.14-.73.13-.42 1.37-1.91 5.29-5.63 7.29C24.4 42.47 23.15 42.78 21.9 42.78zM12.96 33.49c.07 0 .14.01.2.04.14.06.25.18.28.33.01.05 1.21 4.94 5.28 7.13 1.99 1.07 4.36 1.07 6.35 0 4.06-2.18 5.25-7.08 5.27-7.13.04-.15.14-.28.29-.34.14-.06.31-.05.44.03.01 0 .2.09.45-.03.31-.14.89-.67 1.32-2.6.39-1.73.08-2.32-.14-2.52-.32-.29-.87-.14-.88-.13-.16.05-.33.02-.46-.09-.13-.11-.2-.27-.18-.43l.03-.27c.49-4.48 1.17-10.62-6.82-12-1.67-.29-3.35-.29-5.02 0-7.98 1.38-7.31 7.51-6.82 11.98l.03.29c.02.17-.05.33-.18.43-.13.11-.3.14-.46.09 0 0-.55-.16-.88.14-.22.2-.52.8-.13 2.52.44 1.93 1.02 2.46 1.33 2.6.25.12.44.03.46.02C12.8 33.51 12.88 33.49 12.96 33.49zM21.89 49.27c-.08 0-.17-.02-.24-.06l-7.63-4.31c-.24-.13-.32-.43-.19-.67.13-.24.43-.32.67-.19l7.39 4.18 7.4-4.16c.24-.13.54-.05.67.19.13.24.05.54-.19.67l-7.64 4.3C22.06 49.25 21.98 49.27 21.89 49.27z"></path><path d="M42.61,64H1.18c-0.14,0-0.27-0.06-0.36-0.15c-0.09-0.1-0.14-0.23-0.13-0.37c0.03-0.51,0.07-1.6,0.11-2.9
							c0.12-3.64,0.23-6.73,0.4-7.55c1.13-5.64,11.07-8.2,11.5-8.31c0.81-0.31,1.46-0.71,1.96-1.23c0.67-0.69,1.09-2.03,1.17-3.69
							c0.01-0.27,0.26-0.48,0.51-0.47c0.27,0.01,0.48,0.24,0.47,0.51c-0.05,1.12-0.31,3.17-1.45,4.33c-0.6,0.62-1.37,1.11-2.37,1.48
							c-0.15,0.04-9.82,2.53-10.82,7.56c-0.16,0.81-0.3,4.77-0.38,7.39c-0.03,0.96-0.06,1.81-0.09,2.4h40.38
							c-0.03-0.64-0.06-1.6-0.1-2.68c-0.09-2.67-0.22-6.33-0.38-7.11c-1.01-5.03-10.67-7.52-10.77-7.55
							c-1.03-0.38-1.83-0.87-2.42-1.46c-1.05-1.11-1.38-2.9-1.46-4.21l0-0.16c0-0.27,0.22-0.49,0.49-0.49
							c0.27,0,0.49,0.22,0.49,0.49v0.13c0.11,1.59,0.53,2.86,1.18,3.55c0.48,0.48,1.16,0.89,2.01,1.21
							c0.37,0.09,10.31,2.65,11.44,8.29c0.17,0.86,0.3,4.42,0.39,7.27c0.05,1.42,0.09,2.63,0.13,3.17c0.01,0.14-0.04,0.27-0.13,0.37
							C42.87,63.94,42.74,64,42.61,64z"></path><g><path d="M35.39 64c-.27 0-.49-.22-.49-.49v-7.78c0-.27.22-.49.49-.49.27 0 .49.22.49.49v7.78C35.89 63.78 35.67 64 35.39 64zM8.39 64c-.27 0-.49-.22-.49-.49v-7.78c0-.27.22-.49.49-.49.27 0 .49.22.49.49v7.78C8.88 63.78 8.66 64 8.39 64z"></path></g><g><path d="M26.31,25.52c-5.42,0-8.68-2.06-9.76-2.88c-1.61,1.73-3.73,2.38-4.61,2.59c-0.27,0.06-0.53-0.1-0.59-0.37
				c-0.06-0.26,0.1-0.53,0.37-0.59c0.84-0.2,2.94-0.85,4.39-2.62c0.09-0.1,0.21-0.17,0.35-0.18c0.14-0.01,0.27,0.04,0.37,0.13
				c0.05,0.05,5.2,4.61,15.02,2.25c0.27-0.06,0.53,0.1,0.59,0.36c0.06,0.26-0.1,0.53-0.36,0.59C29.94,25.32,28.02,25.52,26.31,25.52
				z"></path></g><g><path d="M48.54,29.54c-8.14,0-14.77-6.63-14.77-14.77C33.77,6.63,40.4,0,48.54,0s14.77,6.63,14.77,14.77
				C63.31,22.91,56.68,29.54,48.54,29.54z M48.54,0.98c-7.6,0-13.79,6.18-13.79,13.79c0,7.6,6.18,13.79,13.79,13.79
				c7.6,0,13.78-6.18,13.78-13.79C62.32,7.17,56.14,0.98,48.54,0.98z"></path><path d="M48.54,27.05c-6.77,0-12.28-5.51-12.28-12.28c0-6.77,5.51-12.28,12.28-12.28c6.77,0,12.28,5.51,12.28,12.28
				C60.82,21.54,55.31,27.05,48.54,27.05z M48.54,3.47c-6.23,0-11.3,5.07-11.3,11.3c0,6.23,5.07,11.3,11.3,11.3
				c6.23,0,11.3-5.07,11.3-11.3C59.83,8.54,54.77,3.47,48.54,3.47z"></path><path d="M48.54 16.32c-.85 0-1.55-.7-1.55-1.55 0-.85.7-1.55 1.55-1.55.85 0 1.55.7 1.55 1.55C50.09 15.62 49.39 16.32 48.54 16.32zM48.54 14.2c-.31 0-.57.25-.57.57 0 .31.25.57.57.57.31 0 .56-.25.56-.57C49.1 14.46 48.85 14.2 48.54 14.2zM48.54 6.15c-.27 0-.49-.22-.49-.49V4.42c0-.27.22-.49.49-.49.27 0 .49.22.49.49v1.24C49.03 5.93 48.81 6.15 48.54 6.15zM42.1 8.82c-.13 0-.25-.05-.35-.14L40.87 7.8c-.19-.19-.19-.5 0-.7.19-.19.5-.19.7 0l.88.88c.19.19.19.5 0 .7C42.35 8.77 42.22 8.82 42.1 8.82zM39.43 15.26h-1.24c-.27 0-.49-.22-.49-.49 0-.27.22-.49.49-.49h1.24c.27 0 .49.22.49.49C39.92 15.04 39.7 15.26 39.43 15.26zM41.22 22.58c-.13 0-.25-.05-.35-.14-.19-.19-.19-.5 0-.7l.88-.88c.19-.19.5-.19.7 0 .19.19.19.5 0 .7l-.88.88C41.47 22.53 41.35 22.58 41.22 22.58zM48.54 25.61c-.27 0-.49-.22-.49-.49v-1.24c0-.27.22-.49.49-.49.27 0 .49.22.49.49v1.24C49.03 25.39 48.81 25.61 48.54 25.61zM55.86 22.58c-.13 0-.25-.05-.35-.14l-.88-.88c-.19-.19-.19-.5 0-.7.19-.19.5-.19.7 0l.88.88c.19.19.19.5 0 .7C56.11 22.53 55.98 22.58 55.86 22.58zM58.89 15.26h-1.24c-.27 0-.49-.22-.49-.49 0-.27.22-.49.49-.49h1.24c.27 0 .49.22.49.49C59.38 15.04 59.16 15.26 58.89 15.26zM54.98 8.82c-.13 0-.25-.05-.35-.14-.19-.19-.19-.5 0-.7l.88-.88c.19-.19.5-.19.7 0 .19.19.19.5 0 .7l-.88.88C55.23 8.77 55.11 8.82 54.98 8.82z"></path><path d="M48.54 14.2c-.27 0-.49-.22-.49-.49V7.45c0-.27.22-.49.49-.49.27 0 .49.22.49.49v6.26C49.03 13.98 48.81 14.2 48.54 14.2zM53.12 15.26H49.6c-.27 0-.49-.22-.49-.49 0-.27.22-.49.49-.49h3.52c.27 0 .49.22.49.49C53.61 15.04 53.39 15.26 53.12 15.26z"></path></g></svg>