<svg xmlns="http://www.w3.org/2000/svg" enable-background="new 0 0 64 64" viewBox="0 0 64 64" id="bowling-player"><path d="M59.81,24.63c-0.64-0.73-1.52-1.16-2.48-1.22l-9.56-0.62l-3.41-9.22c1.21,2.22,3.58,3.74,6.28,3.74
	c3.94,0,7.15-3.21,7.15-7.15c0-3.94-3.21-7.15-7.15-7.15s-7.15,3.21-7.15,7.15c0,0.86,0.16,1.69,0.44,2.45
	c-0.69-1.16-1.98-1.86-3.38-1.76l-16.17,1.25v0.12c-0.3,0.1-0.58,0.25-0.85,0.43l-6.68,4.58c-0.92-0.44-1.95-0.69-3.04-0.69
	c-3.94,0-7.15,3.21-7.15,7.15c0,3.94,3.21,7.15,7.15,7.15s7.15-3.21,7.15-7.15c0-0.17-0.01-0.33-0.03-0.49l5.88-4.03l5.84-0.45
	l-8.21,10.02c-0.48,0.53-0.8,1.19-0.9,1.86l-2.42,12.7l-14.59,1.6c-1.98,0.21-3.43,2-3.21,3.98c0.1,0.96,0.57,1.82,1.32,2.43
	c0.75,0.61,1.69,0.88,2.66,0.78l17.25-1.89c1.62-0.17,2.93-1.42,3.18-3l1.71-8.99l5.11,4.67l-1.43,14.16
	c-0.09,0.96,0.19,1.9,0.8,2.65c0.61,0.75,1.48,1.21,2.44,1.3C36.5,60.99,36.62,61,36.74,61c0.83,0,1.63-0.29,2.29-0.82
	c0.75-0.61,1.21-1.48,1.3-2.44l1.61-15.96c0.07-0.74-0.09-1.48-0.45-2.12l0.15-0.12l-9.56-8.73l7.53-9.18l2.18,5.87
	c0.49,1.35,1.74,2.27,3.17,2.37l11.92,0.78c0.96,0.06,1.9-0.26,2.62-0.9c0.73-0.64,1.16-1.52,1.22-2.49
	C60.76,26.29,60.45,25.36,59.81,24.63z M50.63,5c2.84,0,5.15,2.31,5.15,5.15c0,2.84-2.31,5.15-5.15,5.15s-5.15-2.31-5.15-5.15
	C45.47,7.31,47.78,5,50.63,5z M13.8,28.84c-2.84,0-5.15-2.31-5.15-5.15c0-2.84,2.31-5.15,5.15-5.15c1.04,0,2.01,0.32,2.82,0.85
	c0.03,0.02,0.07,0.04,0.1,0.07c0.25,0.17,0.49,0.37,0.7,0.58c0.01,0.01,0.03,0.03,0.04,0.04c0.45,0.45,0.81,0.99,1.07,1.58
	c0.01,0.01,0.01,0.03,0.02,0.04c0.12,0.28,0.21,0.57,0.27,0.88c0.01,0.05,0.02,0.09,0.03,0.14c0.06,0.32,0.1,0.64,0.1,0.98
	C18.95,26.53,16.64,28.84,13.8,28.84z M58.16,28.24c-0.32,0.29-0.74,0.43-1.17,0.4l-11.92-0.78c-0.64-0.04-1.2-0.46-1.42-1.06
	l-3.39-9.15L29.33,31l9.24,8.44l0,0l0.87,0.79c0.38,0.35,0.57,0.84,0.52,1.35l-1.61,15.96v0c-0.09,0.89-0.88,1.53-1.77,1.45
	c-0.89-0.09-1.54-0.88-1.45-1.76l1.53-15.16l-8.5-7.76l-2.39,12.54c-0.11,0.72-0.7,1.28-1.43,1.35L7.08,50.09
	c-0.43,0.04-0.85-0.08-1.19-0.35c-0.34-0.27-0.55-0.66-0.59-1.09c-0.09-0.89,0.55-1.69,1.44-1.78l16.06-1.76l2.71-14.19
	c0.05-0.32,0.19-0.61,0.45-0.91l11.2-13.66l-11.04,0.85l-5.65,3.87c-0.01-0.04-0.04-0.07-0.05-0.11c-0.04-0.11-0.09-0.21-0.14-0.31
	c-0.23-0.5-0.52-0.96-0.86-1.39c-0.04-0.05-0.08-0.1-0.12-0.15c-0.1-0.12-0.21-0.24-0.32-0.35c-0.06-0.07-0.13-0.14-0.2-0.2
	c-0.05-0.05-0.09-0.1-0.14-0.15l6.02-4.12c0.24-0.16,0.51-0.26,0.79-0.28l15.25-1.18c0.73-0.05,1.42,0.4,1.67,1.13l3.97,10.73
	l10.86,0.71c0.43,0.03,0.83,0.22,1.11,0.54c0.29,0.32,0.43,0.74,0.4,1.17C58.68,27.56,58.49,27.95,58.16,28.24z"></path></svg>