<svg xmlns="http://www.w3.org/2000/svg" enable-background="new 0 0 48 48" viewBox="0 0 48 48" id="certification"><path d="M27.1,35.9v11.6l5.3-5.1l5.4,5.1V35.9c2.3-1.6,3.8-4,4-6.8h5.7V0.5h-47v28.6h22.6C23.3,31.9,24.8,34.3,27.1,35.9z
		 M35.8,42.8l-3.4-3.2l-3.3,3.2v-5.8c0.3,0.1,0.5,0.2,0.8,0.3c0,0,0.1,0,0.1,0c0.3,0.1,0.6,0.1,0.9,0.2c0.1,0,0.3,0,0.4,0.1
		c0.2,0,0.5,0,0.7,0c0.1,0,0.2,0,0.3,0c0.1,0,0.2,0,0.3,0c0.2,0,0.5,0,0.7,0c0.1,0,0.3,0,0.4-0.1c0.3,0,0.6-0.1,1-0.2
		c0,0,0.1,0,0.1,0c0.3-0.1,0.5-0.2,0.8-0.3V42.8z M36.3,34.5c-1.7,1-3.9,1.3-5.8,0.8c-0.6-0.2-1.3-0.4-1.8-0.8
		c-2.3-1.4-3.6-3.8-3.6-6.4c0-4.1,3.3-7.5,7.4-7.5s7.5,3.3,7.5,7.5C39.9,30.7,38.5,33.1,36.3,34.5z M2.5,2.5h43v24.6h-3.7
		c0-0.3-0.1-0.6-0.1-0.9c0-0.1,0-0.1,0-0.2c-0.1-0.2-0.1-0.5-0.2-0.7c0-0.1-0.1-0.2-0.1-0.3c-0.1-0.2-0.1-0.4-0.2-0.5
		c0-0.1-0.1-0.2-0.2-0.3c-0.1-0.2-0.1-0.3-0.2-0.5c-0.1-0.1-0.1-0.2-0.2-0.3c-0.1-0.1-0.2-0.3-0.3-0.4c-0.1-0.1-0.1-0.2-0.2-0.3
		c-0.1-0.1-0.2-0.3-0.3-0.4c-0.1-0.1-0.2-0.2-0.3-0.3c-0.1-0.1-0.2-0.2-0.3-0.4c-0.1-0.1-0.2-0.2-0.3-0.3c-0.1-0.1-0.2-0.2-0.4-0.3
		c-0.1-0.1-0.2-0.2-0.3-0.3c-0.1-0.1-0.3-0.2-0.4-0.3c-0.1-0.1-0.2-0.2-0.3-0.2c-0.1-0.1-0.3-0.2-0.4-0.3c-0.1-0.1-0.2-0.1-0.3-0.2
		c-0.1-0.1-0.3-0.1-0.4-0.2c-0.1-0.1-0.2-0.1-0.4-0.2c-0.2-0.1-0.3-0.1-0.5-0.2c-0.1,0-0.2-0.1-0.4-0.1C35,19,34.8,19,34.6,18.9
		c-0.1,0-0.2-0.1-0.4-0.1c-0.2,0-0.4-0.1-0.6-0.1c-0.1,0-0.2,0-0.3,0c-0.3,0-0.6,0-0.9,0c-0.3,0-0.6,0-0.9,0c-0.1,0-0.2,0-0.3,0
		c-0.2,0-0.4,0.1-0.6,0.1c-0.1,0-0.2,0.1-0.4,0.1c-0.2,0-0.4,0.1-0.5,0.1c-0.1,0-0.2,0.1-0.4,0.1c-0.2,0.1-0.3,0.1-0.5,0.2
		c-0.1,0-0.2,0.1-0.4,0.2c-0.2,0.1-0.3,0.1-0.4,0.2c-0.1,0.1-0.2,0.1-0.3,0.2c-0.1,0.1-0.3,0.2-0.4,0.3c-0.1,0.1-0.2,0.1-0.3,0.2
		c-0.1,0.1-0.3,0.2-0.4,0.3c-0.1,0.1-0.2,0.2-0.3,0.3c-0.1,0.1-0.2,0.2-0.4,0.3c-0.1,0.1-0.2,0.2-0.3,0.3c-0.1,0.1-0.2,0.2-0.3,0.4
		c-0.1,0.1-0.2,0.2-0.3,0.3c-0.1,0.1-0.2,0.3-0.3,0.4c-0.1,0.1-0.2,0.2-0.2,0.3c-0.1,0.1-0.2,0.3-0.3,0.4c-0.1,0.1-0.1,0.2-0.2,0.3
		c-0.1,0.2-0.2,0.3-0.2,0.5c-0.1,0.1-0.1,0.2-0.2,0.3c-0.1,0.2-0.1,0.4-0.2,0.5c0,0.1-0.1,0.2-0.1,0.3c-0.1,0.2-0.1,0.4-0.2,0.7
		c0,0.1,0,0.1-0.1,0.2c-0.1,0.3-0.1,0.6-0.1,0.9H2.5V2.5z"></path><path d="M32.4,22.6c-3,0-5.5,2.5-5.5,5.5c0,1.9,1,3.7,2.7,4.7c0.9,0.5,1.8,0.8,2.8,0.8c1,0,2-0.3,2.8-0.8c1.6-1,2.7-2.8,2.7-4.7
		C37.9,25.1,35.5,22.6,32.4,22.6z M34.3,31.1c-1.1,0.6-2.5,0.6-3.6,0c-1.1-0.6-1.7-1.8-1.7-3c0-1.9,1.6-3.5,3.5-3.5s3.5,1.6,3.5,3.5
		C35.9,29.3,35.3,30.5,34.3,31.1z"></path><rect width="14.6" height="2" x="7.4" y="7"></rect><rect width="14.6" height="2" x="7.4" y="13"></rect><rect width="14.6" height="2" x="7.4" y="18.9"></rect></svg>