<svg xmlns="http://www.w3.org/2000/svg" enable-background="new 0 0 66 66" viewBox="0 0 66 66" id="content-writing"><path d="M61.8477,1H43.9033C42.165,1,40.75,2.414,40.75,4.1523v9.3438h-1.6738v-1.2175c0.0034-0.0334,0.0195-0.0625,0.0195-0.0969
		c0-0.3369-0.166-0.6348-0.4209-0.8164L28.6016,1.2929c-0.0859-0.0859-0.1869-0.1473-0.2932-0.196
		c-0.0303-0.0139-0.061-0.0222-0.0926-0.033c-0.0847-0.0292-0.1705-0.0461-0.2599-0.0518C27.9348,1.0108,27.9158,1,27.8945,1
		H11.7939C9.8428,1,8.2559,2.5908,8.2559,4.5469v8.9492H7.9092c-2.1914,0-3.9736,1.7871-3.9736,3.9844v38.4375H2
		c-0.5527,0-1,0.4473-1,1v3.6816C1,63.0263,2.9736,65,5.4004,65h55.1992C63.0264,65,65,63.0263,65,60.5996v-3.6816
		c0-0.5527-0.4473-1-1-1h-1.9355V21.2124C63.7,21.0986,65,19.7451,65,18.081V4.1523C65,2.414,63.5859,1,61.8477,1z M28.8945,4.414
		l6.7676,6.7676h-5.2197c-0.8535,0-1.5479-0.6904-1.5479-1.5391V4.414z M10.2559,4.5469C10.2559,3.6943,10.9463,3,11.7939,3h15.1006
		v6.6426c0,1.9512,1.5918,3.5391,3.5479,3.5391h6.6338v26.1826c0,0.8477-0.6904,1.5381-1.5381,1.5381H11.7939
		c-0.8477,0-1.5381-0.6904-1.5381-1.5381V4.5469z M63,60.5996C63,61.9228,61.9229,63,60.5996,63H5.4004
		C4.0771,63,3,61.9228,3,60.5996v-2.6816h22.5195l1.1855,2.5859c0.1631,0.3555,0.5186,0.583,0.9092,0.583h10.7813
		c0.3906,0,0.7461-0.2275,0.9092-0.583l1.1855-2.5859H63V60.5996z M39.8486,55.9179c-0.3906,0-0.7461,0.2275-0.9092,0.583
		l-1.1855,2.5859h-9.498l-1.1855-2.5859c-0.1631-0.3555-0.5186-0.583-0.9092-0.583H5.9355V17.4804
		c0-1.0938,0.8857-1.9844,1.9736-1.9844h0.3467v23.8682c0,1.9512,1.5869,3.5381,3.5381,3.5381h23.7441
		c1.9512,0,3.5381-1.5869,3.5381-3.5381V15.4961H40.75v2.585c0,1.7383,1.415,3.1533,3.1533,3.1533h5.4932l2.6426,3.9482
		c0.1855,0.2773,0.4971,0.4434,0.8311,0.4434s0.6455-0.167,0.8311-0.4443l2.6416-3.9473h3.7217v34.6836H39.8486z M63,18.081
		c0,0.6357-0.5166,1.1533-1.1523,1.1533H61.079c-0.0051,0-0.0093-0.0029-0.0145-0.0029s-0.0094,0.0029-0.0145,0.0029h-5.2413
		c-0.334,0-0.6455,0.167-0.8311,0.4443l-2.1074,3.1494l-2.1084-3.1504c-0.1855-0.2773-0.4971-0.4434-0.8311-0.4434h-6.0273
		c-0.6357,0-1.1533-0.5176-1.1533-1.1533V4.1523C42.75,3.5166,43.2676,3,43.9033,3h17.9443C62.4834,3,63,3.5166,63,4.1523V18.081z"></path><path d="M14.0947 11.6601H23.79c.2764 0 .5-.2236.5-.5s-.2236-.5-.5-.5h-9.6953c-.2764 0-.5.2236-.5.5S13.8184 11.6601 14.0947 11.6601zM14.0947 24.6094h19.1426c.2764 0 .5-.2236.5-.5s-.2236-.5-.5-.5H14.0947c-.2764 0-.5.2236-.5.5S13.8184 24.6094 14.0947 24.6094zM14.0947 15.9765h19.1426c.2764 0 .5-.2236.5-.5s-.2236-.5-.5-.5H14.0947c-.2764 0-.5.2236-.5.5S13.8184 15.9765 14.0947 15.9765zM14.0947 28.9258h19.1426c.2764 0 .5-.2236.5-.5s-.2236-.5-.5-.5H14.0947c-.2764 0-.5.2236-.5.5S13.8184 28.9258 14.0947 28.9258zM14.0947 20.2929h19.1426c.2764 0 .5-.2236.5-.5s-.2236-.5-.5-.5H14.0947c-.2764 0-.5.2236-.5.5S13.8184 20.2929 14.0947 20.2929zM14.0947 33.2422h19.1426c.2764 0 .5-.2236.5-.5s-.2236-.5-.5-.5H14.0947c-.2764 0-.5.2236-.5.5S13.8184 33.2422 14.0947 33.2422zM14.0947 7.3437H23.79c.2764 0 .5-.2236.5-.5s-.2236-.5-.5-.5h-9.6953c-.2764 0-.5.2236-.5.5S13.8184 7.3437 14.0947 7.3437zM14.0947 37.5586h19.1426c.2764 0 .5-.2236.5-.5s-.2236-.5-.5-.5H14.0947c-.2764 0-.5.2236-.5.5S13.8184 37.5586 14.0947 37.5586zM50.2822 48.9433c-.1001-.048-6.7078-3.1904-6.8564-3.1904H21.2695c-1.1719 0-2.125.9531-2.125 2.125v3.0508c0 1.1719.9531 2.125 2.125 2.125 5.6072.0002 16.5538.0007 22.1563.001.235 0 .0898-.0087 6.8574-3.208.1738-.083.2852-.2588.2852-.4521C50.5684 49.2021 50.457 49.0263 50.2822 48.9433zM42.9258 52.0547l-18.1055-.0007v-5.301h18.1055V52.0547zM20.1445 50.9287v-3.0508c0-.6201.5049-1.125 1.125-1.125h2.5508v5.3009l-2.5508-.0001C20.6494 52.0537 20.1445 51.5488 20.1445 50.9287zM43.9258 47.0429l2.6932 1.2739c-.2224.709-.2217 1.4559.0016 2.1648l-2.6948 1.282V47.0429zM47.524 50.0517c-.1118-.4302-.1121-.877-.0008-1.3071l1.3782.6519L47.524 50.0517zM60.125 8.8681H45.623c-.2764 0-.5.2236-.5.5s.2236.5.5.5h14.502c.2764 0 .5-.2236.5-.5S60.4014 8.8681 60.125 8.8681zM60.125 12.3623H45.623c-.2764 0-.5.2236-.5.5s.2236.5.5.5h14.502c.2764 0 .5-.2236.5-.5S60.4014 12.3623 60.125 12.3623zM60.125 5.375H45.623c-.2764 0-.5.2236-.5.5s.2236.5.5.5h14.502c.2764 0 .5-.2236.5-.5S60.4014 5.375 60.125 5.375zM60.125 15.8564H45.623c-.2764 0-.5.2236-.5.5s.2236.5.5.5h14.502c.2764 0 .5-.2236.5-.5S60.4014 15.8564 60.125 15.8564z"></path></svg>