<svg xmlns="http://www.w3.org/2000/svg" viewBox="0 0 32 32" id="data-input"><path d="m20.5,30v-4.7929688l.1464844.1464844c.0976562.0976562.2255859.1464844.3535156.1464844s.2558594-.0488281.3535156-.1464844c.1953125-.1953125.1953125-.5117188,0-.7070312l-.9993896-.9993896-.0012207-.0012207-3.9993896-3.9993896c-.1953125-.1953125-.5117188-.1953125-.7070312,0l-3.9993896,3.9993896-.0012207.0012207-.9993896.9993896c-.1953125.1953125-.1953125.5117188,0,.7070312s.5117188.1953125.7070312,0l.1464844-.1464844v4.7929688c0,.2763672.2236328.5.5.5h2c.2763672,0,.5-.2236328.5-.5s-.2236328-.5-.5-.5h-1.5v-5.2929688l3.5-3.5,3.5,3.5v5.2929688h-1.5c-.2763672,0-.5.2236328-.5.5s.2236328.5.5.5h2c.2763672,0,.5-.2236328.5-.5Z"></path><path d="m21.9711914,23.5214844c.1054688,0,.2104492-.0332031.2983398-.0986328.8203125-.6103516,1.5449219-1.3339844,2.1533203-2.1533203.1166992-.15625.1308594-.3671875.0371094-.5380859l-.6699219-1.2216797c.4008789-.6972656.7045898-1.4316406.9052734-2.1884766l1.3378906-.3916016c.1875-.0546875.3261719-.2128906.3544922-.40625.1494141-1.0107422.1494141-2.0361328,0-3.046875-.0283203-.1933594-.1669922-.3515625-.3544922-.40625l-1.3378906-.3916016c-.2006836-.7568359-.5043945-1.4912109-.9052734-2.1884766l.6699219-1.2216797c.09375-.1708984.0795898-.3818359-.0371094-.5380859-.6103516-.8212891-1.3349609-1.5458984-2.1538086-2.1533203-.15625-.1171875-.3671875-.1308594-.5385742-.0371094l-1.2202148.6699219c-.6982422-.4013672-1.4326172-.7050781-2.1894531-.9052734l-.390625-1.3369141c-.0546875-.1875-.2133789-.3261719-.40625-.3544922-1.0117188-.1503906-2.0361328-.1503906-3.0478516,0-.1928711.0283203-.3515625.1669922-.40625.3544922l-.390625,1.3369141c-.7568359.2001953-1.4912109.5039062-2.1894531.9052734l-1.2202148-.6699219c-.1713867-.09375-.3823242-.0800781-.5385742.0371094-.8188477.6074219-1.543457,1.3320312-2.1538086,2.1533203-.1166992.15625-.1308594.3671875-.0371094.5380859l.6699219,1.2216797c-.4008789.6972656-.7045898,1.4316406-.9052734,2.1884766l-1.3378906.3916016c-.1875.0546875-.3261719.2128906-.3544922.40625-.1494141,1.0107422-.1494141,2.0361328,0,3.046875.0283203.1933594.1669922.3515625.3544922.40625l1.3378906.3916016c.2006836.7568359.5043945,1.4912109.9052734,2.1884766l-.6699219,1.2216797c-.09375.1708984-.0795898.3818359.0371094.5380859.6083984.8193359,1.3330078,1.5429688,2.1533203,2.1533203.1567383.1162109.3681641.1308594.5390625.0371094l1.4711914-.8076172c.2421875-.1328125.3305664-.4375.1977539-.6787109-.1333008-.2421875-.4350586-.3310547-.6791992-.1982422l-1.1845703.6503906c-.5556641-.4423828-1.0585938-.9453125-1.5004883-1.5l.6499023-1.1855469c.0864258-.1572266.081543-.3496094-.0126953-.5029297-.472168-.765625-.8095703-1.5830078-1.0029297-2.4267578-.0405273-.1767578-.1733398-.3173828-.347168-.3681641l-1.3007812-.3808594c-.0800781-.7060547-.0800781-1.4169922,0-2.1230469l1.3007812-.3808594c.1738281-.0507812.3066406-.1914062.347168-.3681641.1933594-.84375.5307617-1.6611328,1.0029297-2.4267578.0942383-.1533203.0991211-.3457031.0126953-.5029297l-.6499023-1.1855469c.4428711-.5556641.9458008-1.0585938,1.5004883-1.5l1.1845703.6503906c.1582031.0869141.3510742.0820312.5029297-.0126953.7666016-.4726562,1.5834961-.8105469,2.4277344-1.0029297.1767578-.0400391.3178711-.1728516.3686523-.3476562l.3798828-1.3007812c.7060547-.0800781,1.4169922-.0800781,2.1230469,0l.3798828,1.3007812c.0507812.1748047.1918945.3076172.3686523.3476562.8442383.1923828,1.6611328.5302734,2.4277344,1.0029297.152832.0947266.3447266.0996094.5029297.0126953l1.1845703-.6503906c.5546875.4414062,1.0576172.9443359,1.5004883,1.5l-.6499023,1.1855469c-.0864258.1572266-.081543.3496094.0126953.5029297.472168.765625.8095703,1.5830078,1.0029297,2.4267578.0405273.1767578.1733398.3173828.347168.3681641l1.3007812.3808594c.0800781.7060547.0800781,1.4169922,0,2.1230469l-1.3007812.3808594c-.1738281.0507812-.3066406.1914062-.347168.3681641-.1933594.84375-.5307617,1.6611328-1.0029297,2.4267578-.0942383.1533203-.0991211.3457031-.0126953.5029297l.6499023,1.1855469c-.4418945.5546875-.9448242,1.0576172-1.5004883,1.5l-1.1845703-.6503906c-.2426758-.1328125-.5454102-.0449219-.6791992.1982422-.1328125.2412109-.0444336.5458984.1977539.6787109l1.4711914.8076172c.0751953.0410156.1582031.0615234.2407227.0615234Z"></path><path d="m19.8334961,15c0-2.1132812-1.7197266-3.8330078-3.8334961-3.8330078s-3.8334961,1.7197266-3.8334961,3.8330078,1.7197266,3.8330078,3.8334961,3.8330078,3.8334961-1.7197266,3.8334961-3.8330078Zm-6.6669922,0c0-1.5625,1.2709961-2.8330078,2.8334961-2.8330078s2.8334961,1.2705078,2.8334961,2.8330078-1.2709961,2.8330078-2.8334961,2.8330078-2.8334961-1.2705078-2.8334961-2.8330078Z"></path><path d="m8.8017578,26.4228516c.2348633.1494141.5424805.0791016.6899414-.15625.1474609-.2333984.0776367-.5419922-.1557617-.6894531-3.6542969-2.3076172-5.8359375-6.2617188-5.8359375-10.5771484,0-6.8925781,5.6074219-12.5,12.5-12.5s12.5,5.6074219,12.5,12.5c0,4.3154297-2.1816406,8.2695312-5.8359375,10.5771484-.2333984.1474609-.3032227.4560547-.1557617.6894531.0952148.1513672.2573242.2333984.4233398.2333984.0913086,0,.1835938-.0253906.2666016-.0771484,3.9458008-2.4921875,6.3017578-6.7617188,6.3017578-11.4228516,0-7.4443359-6.0561523-13.5-13.5-13.5S2.5,7.5556641,2.5,15c0,4.6611328,2.355957,8.9306641,6.3017578,11.4228516Z"></path><circle cx="16" cy="30" r=".5"></circle></svg>