<svg xmlns="http://www.w3.org/2000/svg" width="24" height="24" fill="none" viewBox="0 0 24 24" id="facetime"><path stroke="#000" stroke-linejoin="round" d="M5.5 14V10C5.5 9.44772 5.94772 9 6.5 9H12C12.5523 9 13 9.44772 13 10V14C13 14.5523 12.5523 15 12 15H6.5C5.94772 15 5.5 14.5523 5.5 14zM18.5 9L15.5 11V13L18.5 15V9z"></path><path stroke="#000" stroke-linejoin="round" d="M3 19V5C3 3.89543 3.89543 3 5 3H19C20.1046 3 21 3.89543 21 5V19C21 20.1046 20.1046 21 19 21H5C3.89543 21 3 20.1046 3 19Z"></path></svg>