<svg xmlns="http://www.w3.org/2000/svg" enable-background="new 0 0 512 512" viewBox="0 0 512 512" id="graphic-design"><path d="M439.438,86.177h-58.428c15.934-16.37,16.488-42.863-0.958-59.593c-17.077-16.377-44.928-16.323-62.079,0.125
		l-57.199,54.848l-63.166-60.04c-9.438-8.972-24.794-8.971-34.23,0L125.668,57.36c-10.543,10.021-7.585,22.965-4.115,28.817H72.562
		c-17.64,0-31.991,14.351-31.991,31.991v260.547c0,17.64,14.351,31.991,31.991,31.991h128.973v67.008H167.07
		c-5.523,0-10,4.478-10,10s4.477,10,10,10h177.86c5.522,0,10-4.478,10-10s-4.478-10-10-10h-34.465v-67.008h128.973
		c17.64,0,31.991-14.352,31.991-31.991V118.168C471.429,100.528,457.077,86.177,439.438,86.177z M451.429,378.715
		c0,6.612-5.379,11.991-11.991,11.991H72.562c-6.612,0-11.991-5.379-11.991-11.991v-11.513h390.857V378.715z M290.465,477.714
		h-68.93v-67.008h68.93V477.714z M60.571,347.202V118.168c0-6.612,5.379-11.991,11.991-11.991h68.721l47.113,44.782l-47.776,45.813
		c-1.209,1.153-2.085,2.615-2.611,4.19l-18.174,54.352c-2.033,6.076-0.503,12.712,3.991,17.317
		c7.122,7.299,15.981,5.115,17.926,4.518l56.662-17.42c1.548-0.463,2.978-1.276,4.153-2.393l48.657-46.657l63.167,60.041
		c8.417,7.999,23.849,9.866,34.229-0.001l37.71-35.843c0,0,0,0,0,0c8.474-8.055,11.05-23.466,0-33.974l-62.729-59.625l36.604-35.099
		h79.231c6.612,0,11.991,5.379,11.991,11.991v229.034H60.571z M139.447,76.838c-1.584-1.87-1.585-3.111,0-4.981l37.709-35.843
		c1.777-1.689,4.895-1.69,6.672,0l34.448,32.743l-15.101,14.354c-4.003,3.805-4.164,10.134-0.359,14.137
		c3.792,3.989,10.121,4.177,14.137,0.359l15.838-15.054l13.531,12.861l-43.474,41.687L139.447,76.838z M366.21,41.02
		c8.371,8.026,9.866,22.232-0.132,31.819l-7.651,7.337l-33.658-32.275l7.045-6.756C341.333,32.017,356.763,31.962,366.21,41.02z
		 M310.321,61.755l10.321,9.897L171.663,213.265l-9.673-9.276L310.321,61.755z M343.979,94.03L195.647,236.263l-9.533-9.141
		L335.093,85.509L343.979,94.03z M307.641,196.885c3.791,3.989,10.122,4.177,14.138,0.358l15.837-15.054l34.936,33.207
		c1.585,1.871,1.585,3.112,0.001,4.983v0l-37.71,35.843c-1.777,1.689-4.895,1.689-6.672,0l-62.494-59.401l43.474-41.687
		l13.949,13.259l-15.101,14.354C303.996,186.552,303.836,192.881,307.641,196.885z M152.019,222.136l24.426,23.423l-35.955,11.054
		L152.019,222.136z"></path></svg>