<svg xmlns="http://www.w3.org/2000/svg" viewBox="0 0 24 24" id="income"><path d="M12,9.87c-.17,0-.32-.14-.32-.32s.14-.32,.32-.32c.16,0,.29,.11,.31,.26,.04,.21,.24,.34,.43,.31,.2-.04,.34-.23,.31-.43-.07-.39-.33-.69-.68-.82v-.26c0-.21-.17-.38-.38-.38s-.38,.17-.38,.38v.27c-.4,.15-.69,.54-.69,.99,0,.59,.48,1.07,1.07,1.07,.17,0,.32,.14,.32,.32s-.14,.32-.32,.32c-.15,0-.29-.11-.31-.26-.04-.2-.22-.34-.43-.3-.2,.04-.34,.23-.3,.43,.07,.38,.33,.68,.68,.81v.27c0,.21,.17,.38,.38,.38s.38-.17,.38-.38v-.28c.4-.15,.69-.54,.69-.99,0-.59-.48-1.07-1.07-1.07Z"></path><path d="M7.64 10.65c0 3.37 2.33 3.8 4.36 3.8s4.36-.43 4.36-3.8c0-1.69-.92-3.58-2.31-4.57.07-.49-.02-1.03-.27-1.36l1.1-1.65c.08-.12.08-.28 0-.4-.07-.12-.21-.2-.36-.18-.11.01-.24.02-.4.02-.48 0-.7-.07-.96-.15-.28-.08-.59-.18-1.18-.18s-.9.09-1.17.18c-.26.08-.48.15-.96.15-.15 0-.28-.01-.4-.02-.14-.01-.28.06-.36.18-.07.12-.07.28 0 .4l1.11 1.68c-.26.35-.34.86-.28 1.32-1.39.99-2.32 2.88-2.32 4.58zm7.97 0c0 2.54-1.44 3.05-3.61 3.05s-3.61-.52-3.61-3.05c0-2.05 1.61-4.52 3.61-4.52s3.61 2.47 3.61 4.52zM11.04 3.09c.26-.08.48-.15.95-.15s.7.07.96.15c.23.07.48.15.9.17l-.69 1.04c-.75-.34-1.51-.37-2.33 0l-.69-1.04c.42-.02.67-.1.9-.17zm-.14 2.01c.73-.42 1.46-.43 2.21.01.11.08.19.3.21.55-.41-.18-.86-.28-1.32-.28s-.9.1-1.32.28c.02-.25.1-.48.22-.56zM21.13 16.24c-.08-.41-.41-.71-.85-.76-.59-.08-1.2 0-1.75.23l-2.47 1.04c.02-.13.02-.27 0-.4-.02-.12-.06-.23-.11-.31-.2-.4-.65-.67-1.14-.69l-4.98-.2c-.89-.03-1.76.16-2.53.56l-.96.5c-.07-.12-.15-.24-.27-.32-.19-.13-.43-.18-.65-.14l-1.53.29c-.23.04-.43.17-.56.37-.13.19-.18.43-.14.66l.77 4.09c.08.42.45.71.86.71.05 0 .11 0 .16-.02l1.53-.29c.39-.07.66-.4.69-.78.63-.08 1.28-.08 1.89.04l3.14.64c.27.05.54.08.82.08.86 0 1.73-.26 2.44-.74l5.21-3.6c.33-.23.5-.59.43-.96zm-14.76 4.59l-1.53.29c-.07 0-.13-.03-.15-.1l-.77-4.09c-.01-.07.03-.13.1-.15l1.53-.29s.01 0 .02 0c.05 0 .12.05.13.1l.04.23h0l.7 3.69s0 0 0 0l.03.16c.01.07-.03.13-.1.15zm13.91-4.25l-5.21 3.6c-.77.52-1.77.72-2.69.54l-3.13-.64c-.41-.08-.84-.13-1.27-.13-.29 0-.58.02-.86.06l-.04-.23-.54-2.83 1.11-.58c.66-.34 1.42-.52 2.16-.48l4.98.2c.22 0 .42.12.51.29.01.03.02.06.03.09.03.16-.05.34-.22.46l-.61.46-.16.07-2.61.16c-.21.01-.36.19-.35.4s.15.38.4.35l2.67-.16s.08-.01.12-.03l.25-.11s0 0 .01 0l3.99-1.69c.43-.18.9-.24 1.36-.18.12.02.19.07.21.16.02.09-.05.16-.12.21z"></path></svg>