<svg xmlns="http://www.w3.org/2000/svg" enable-background="new 0 0 512 512" viewBox="0 0 512 512" id="influencer-marketing"><g><g><path d="M328.659,82.918V53.653c0-18.876-15.305-34.18-34.135-34.18H104.7c-18.83,0-34.18,15.305-34.18,34.18v404.693
			c0,1.159,0.092,2.365,0.185,3.478c1.763,17.206,16.325,30.702,33.995,30.702h189.824c17.624,0,32.233-13.496,33.949-30.702
			c0.139-1.113,0.186-2.319,0.186-3.478V204.799c-2.644,2.458-5.797,4.406-9.276,5.612v192.468
			c0,13.728-11.177,24.905-24.905,24.905H104.7c-13.728,0-24.859-11.177-24.905-24.905V53.653c0-13.728,11.177-24.905,24.905-24.905
			h189.824c13.728,0,24.859,11.177,24.859,24.905v31.444L328.659,82.918z"></path><g><path d="M256.868 54.945c0-2.561-2.077-4.638-4.638-4.638H146.979c-2.561 0-4.638 2.077-4.638 4.638 0 2.561 2.077 4.638 4.638 4.638H252.23C254.792 59.582 256.868 57.506 256.868 54.945zM378.137 119.86c.942 0 1.895-.288 2.717-.883l20.623-14.953c2.074-1.504 2.536-4.402 1.033-6.477s-4.402-2.539-6.477-1.033l-20.623 14.953c-2.074 1.504-2.536 4.402-1.033 6.477C375.286 119.197 376.701 119.86 378.137 119.86zM436.843 132.064h-48.615c-2.561 0-4.638 2.077-4.638 4.638s2.077 4.638 4.638 4.638h48.615c2.561 0 4.638-2.077 4.638-4.638S439.404 132.064 436.843 132.064zM380.854 154.424c-2.077-1.506-4.973-1.044-6.477 1.033-1.504 2.074-1.042 4.973 1.033 6.477l20.623 14.953c.822.596 1.775.883 2.717.883 1.436 0 2.851-.664 3.759-1.916 1.504-2.074 1.042-4.973-1.033-6.477L380.854 154.424zM359.917 86.86c-1.113-.881-2.551-1.206-3.943-.881l-112.744 26.667h-18.459c-10.017 0-18.18 8.162-18.18 18.18v11.733c0 10.018 8.163 18.18 18.18 18.18h18.459l13.681 3.247v21.427c0 9.507 7.745 17.206 17.207 17.206h36.545c9.461 0 17.207-7.699 17.207-17.206v-4.638l28.105 6.632c.371.093.696.139 1.067.139 1.021 0 2.041-.325 2.876-1.02 1.113-.881 1.762-2.18 1.762-3.618V90.477C361.679 89.086 361.03 87.741 359.917 86.86zM318.595 185.413c0 4.406-3.571 7.93-7.931 7.93h-36.545c-4.36 0-7.931-3.525-7.931-7.93v-19.247l52.407 12.429V185.413z"></path></g><path d="M225.189,335.028h-7.652v-10.806c12.197-5.055,21.659-15.305,25.786-27.92c13.125-3.803,22.819-15.815,22.819-30.146
			v-9.044c0-36.453-29.683-66.135-66.181-66.135c-36.454,0-66.135,29.682-66.135,66.135v9.044c0,14.331,9.693,26.435,22.818,30.238
			c4.174,12.568,13.635,22.771,25.74,27.827v10.806h-7.606c-31.352,0-56.859,25.508-56.859,56.859v26.992h32.465v-26.992
			c0-2.551,2.087-4.638,4.638-4.638s4.638,2.087,4.638,4.638v26.992h80.651v-26.992c0-2.551,2.04-4.638,4.638-4.638
			c2.551,0,4.638,2.087,4.638,4.638v26.992h32.465v-26.992C282.049,360.536,256.541,335.028,225.189,335.028z M208.261,341.289
			c0,2.226-0.835,4.313-2.411,5.89c-1.577,1.577-3.664,2.411-5.844,2.411c-4.591,0-8.348-3.71-8.348-8.302v-14.284
			c0.695,0.139,1.392,0.185,2.087,0.278c0.603,0.093,1.206,0.232,1.855,0.278c1.391,0.139,2.783,0.186,4.174,0.186
			c0.093,0,0.139,0.046,0.186,0.046c0.093,0,0.185-0.046,0.278-0.046c1.391,0,2.783-0.046,4.128-0.186
			c0.603-0.046,1.159-0.185,1.762-0.232c0.696-0.093,1.437-0.185,2.133-0.325V341.289z M206.175,317.914
			c-0.324,0.046-0.603,0.093-0.881,0.139c-3.525,0.51-7.096,0.51-10.667,0l-0.834-0.139c-1.716-0.278-3.339-0.649-5.009-1.206
			c-14.563-4.731-25.183-18.412-25.183-34.552v-13.264c0-7.281,5.658-13.403,12.8-13.96c9.136-0.649,17.392-3.896,24.673-6.771
			c7.003-2.783,13.356-5.287,19.432-5.287c2.551,0,5.056,0.464,7.513,1.484c4.962,2.041,8.302,7.189,8.302,12.8v24.998
			c0,16.139-10.574,29.821-25.183,34.552C209.514,317.265,207.844,317.636,206.175,317.914z"></path></g></g></svg>