<svg xmlns="http://www.w3.org/2000/svg" viewBox="0 0 48 48" id="learning"><g><polyline fill="none" stroke="#000" stroke-linejoin="round" stroke-width="2" points="24 43 5 43 5 11 11 11"></polyline><polyline fill="none" stroke="#000" stroke-linejoin="round" stroke-width="2" points="37 11 43 11 43 43 24 43 24 36"></polyline><polyline fill="none" stroke="#000" stroke-linejoin="round" stroke-width="2" points="43 13 47 13 47 47 1 47 1 13 5 13"></polyline><path fill="none" stroke="#000" stroke-linejoin="round" stroke-width="2" d="M18 4a3 3 0 0 0-2.58 4.51 5 5 0 0 0 0 7A3 3 0 0 0 18 20a3 3 0 0 0 6 0V4a3 3 0 0 0-6 0zM24 4V20a3 3 0 0 0 6 0 3 3 0 0 0 2.58-4.51 5 5 0 0 0 0-7A3 3 0 0 0 30 4a3 3 0 0 0-6 0zM21 17a3 3 0 0 0-3 3M27 7a3 3 0 0 0 3-3M15 7a3 3 0 0 0 3 3M33 17a3 3 0 0 0-3-3"></path><line x1="20" x2="20" y1="11" y2="9" fill="none" stroke="#000" stroke-linejoin="round" stroke-width="2"></line><line x1="28" x2="28" y1="15" y2="13" fill="none" stroke="#000" stroke-linejoin="round" stroke-width="2"></line><polyline fill="none" stroke="#000" stroke-linejoin="round" stroke-width="2" points="21 23 21 29 24 33 27 29 27 23"></polyline><line x1="21" x2="27" y1="29" y2="29" fill="none" stroke="#000" stroke-linejoin="round" stroke-width="2"></line><line x1="24" x2="24" y1="29" y2="25" fill="none" stroke="#000" stroke-linejoin="round" stroke-width="2"></line><rect width="11" height="6" x="9" y="33" fill="none" stroke="#000" stroke-linejoin="round" stroke-width="2"></rect><line x1="8" x2="18" y1="29" y2="29" fill="none" stroke="#000" stroke-linejoin="round" stroke-width="2"></line><line x1="8" x2="18" y1="25" y2="25" fill="none" stroke="#000" stroke-linejoin="round" stroke-width="2"></line><line x1="8" x2="13" y1="21" y2="21" fill="none" stroke="#000" stroke-linejoin="round" stroke-width="2"></line><line x1="8" x2="12" y1="17" y2="17" fill="none" stroke="#000" stroke-linejoin="round" stroke-width="2"></line><rect width="11" height="6" x="28" y="33" fill="none" stroke="#000" stroke-linejoin="round" stroke-width="2"></rect><line x1="40" x2="30" y1="29" y2="29" fill="none" stroke="#000" stroke-linejoin="round" stroke-width="2"></line><line x1="40" x2="30" y1="25" y2="25" fill="none" stroke="#000" stroke-linejoin="round" stroke-width="2"></line><line x1="40" x2="35" y1="21" y2="21" fill="none" stroke="#000" stroke-linejoin="round" stroke-width="2"></line><line x1="40" x2="36" y1="17" y2="17" fill="none" stroke="#000" stroke-linejoin="round" stroke-width="2"></line></g></svg>