<svg xmlns="http://www.w3.org/2000/svg" viewBox="0 0 24 24" id="research-and-development"><path d="M10.05 4.8H3.75c-.21 0-.38.17-.38.38s.17.38.38.38h6.3c.21 0 .38-.17.38-.38s-.17-.38-.38-.38zM19.44 4.8h-.63c-.21 0-.38.17-.38.38s.17.38.38.38h.63c.21 0 .38-.17.38-.38s-.17-.38-.38-.38zM17.78 4.8h-.63c-.21 0-.38.17-.38.38s.17.38.38.38h.63c.21 0 .38-.17.38-.38s-.17-.38-.38-.38zM6.73 9.42c-.87 0-1.58.71-1.58 1.58s.71 1.58 1.58 1.58 1.58-.71 1.58-1.58-.71-1.58-1.58-1.58zm0 2.42c-.46 0-.83-.38-.83-.83s.38-.83.83-.83.83.38.83.83-.38.83-.83.83z"></path><path d="M9.68,10.85c.24-.09,.38-.35,.32-.6-.08-.37-.23-.72-.43-1.03-.14-.22-.42-.3-.66-.19l-.07,.03-.17-.17,.04-.08c.11-.23,.02-.52-.19-.65-.31-.2-.66-.35-1.03-.43-.25-.06-.51,.08-.6,.32l-.03,.08h-.23l-.03-.08c-.09-.24-.35-.38-.6-.33-.38,.09-.72,.23-1.03,.43-.22,.14-.3,.42-.19,.66l.03,.08-.17,.17-.07-.03c-.23-.11-.52-.03-.66,.19-.2,.31-.35,.66-.43,1.04-.06,.25,.08,.51,.32,.6l.08,.03v.23l-.08,.03c-.24,.09-.38,.35-.32,.6,.09,.38,.23,.72,.43,1.03,.14,.22,.42,.3,.66,.19l.07-.03,.17,.17-.03,.07c-.11,.24-.03,.52,.19,.66,.31,.2,.66,.35,1.03,.43,.25,.06,.51-.08,.6-.32l.03-.08h.23l.03,.08c.08,.21,.28,.34,.49,.34,.04,0,.08,0,.12-.01,.38-.08,.72-.23,1.03-.43,.21-.14,.3-.42,.19-.66l-.03-.08,.17-.17,.08,.03c.24,.11,.51,.03,.66-.19,.2-.31,.35-.66,.43-1.03,.05-.25-.08-.51-.32-.6l-.08-.03v-.23l.09-.03Zm-.5,.91l.04,.02c-.05,.15-.11,.29-.18,.43h-.03c-.2-.11-.43-.07-.59,.09l-.39,.39c-.16,.16-.2,.39-.1,.59v.03c-.12,.07-.26,.13-.41,.18l-.02-.04c-.08-.2-.27-.33-.49-.33h-.55c-.21,0-.4,.13-.49,.33l-.02,.04c-.15-.05-.29-.11-.43-.18l.02-.03c.09-.2,.05-.43-.11-.59l-.39-.39c-.15-.15-.39-.19-.59-.1h-.03c-.07-.12-.13-.26-.18-.41l.04-.02c.2-.08,.34-.27,.34-.49v-.55c0-.21-.13-.41-.33-.49l-.04-.02c.05-.15,.11-.29,.18-.43h.03c.2,.11,.43,.06,.58-.09l.4-.4c.15-.16,.19-.38,.1-.58l-.02-.03c.13-.07,.28-.13,.43-.18l.02,.05c.08,.2,.27,.33,.48,.33h.55c.21,0,.41-.13,.49-.33l.02-.04c.15,.05,.29,.11,.43,.18v.03c-.11,.2-.07,.43,.09,.59l.39,.39c.15,.15,.39,.2,.59,.1l.03-.02c.07,.14,.13,.28,.18,.43l-.04,.02c-.2,.08-.34,.27-.34,.49v.55c0,.21,.13,.41,.33,.49Z"></path><path d="M22,18.55l-.94-.94V4.32c0-.48-.39-.88-.88-.88H2.83c-.48,0-.88,.39-.88,.88v13.74c0,.48,.39,.88,.88,.88H18.98l1.31,1.31c.17,.17,.4,.26,.62,.26s.45-.09,.62-.26l.46-.46c.34-.34,.34-.9,0-1.24ZM2.71,4.32c0-.07,.06-.12,.12-.12H20.18c.07,0,.12,.06,.12,.12v1.82H2.71v-1.82Zm.12,13.87c-.07,0-.12-.06-.12-.12V6.9H20.31v9.96l-.64-.64c-.19-.19-.45-.26-.71-.24l-.64-.65c.29-.5,.46-1.07,.46-1.66,0-.9-.35-1.74-.98-2.37-1.31-1.31-3.43-1.31-4.74,0-.63,.63-.98,1.47-.98,2.37s.35,1.74,.98,2.37c.65,.65,1.51,.98,2.37,.98,.58,0,1.15-.16,1.66-.46l.64,.64c-.03,.25,.05,.51,.24,.71l.27,.27H2.83Zm15.28-1.66l-.41-.41s.06-.05,.09-.08c.03-.03,.05-.07,.08-.1l.41,.42-.17,.17Zm-.85-1.02c-1.01,1.01-2.67,1.02-3.68,0-.49-.49-.76-1.14-.76-1.84s.27-1.35,.76-1.84c.51-.51,1.17-.76,1.84-.76s1.33,.25,1.84,.76h0c.49,.49,.76,1.14,.76,1.84s-.27,1.35-.76,1.84Zm4.21,3.75l-.46,.46s-.13,.05-.18,0l-2.33-2.33s-.05-.13,0-.18l.46-.46s.06-.04,.09-.04,.06,.01,.09,.04l2.33,2.33s.05,.13,0,.18Z"></path><path d="M16.93,12.16c-.84-.83-2.2-.83-3.03,0-.4,.41-.63,.94-.63,1.52s.22,1.11,.63,1.52c.42,.42,.97,.63,1.52,.63s1.1-.21,1.52-.63,.63-.94,.63-1.52-.22-1.11-.63-1.52h0Zm-.53,2.5c-.54,.54-1.43,.54-1.97,0-.26-.26-.41-.61-.41-.99s.15-.72,.41-.99c.27-.27,.63-.41,.99-.41s.71,.14,.99,.41c.26,.26,.41,.61,.41,.99s-.15,.72-.41,.99Z"></path></svg>