<svg xmlns="http://www.w3.org/2000/svg" viewBox="0 0 100 100" id="social-media-marketing"><path d="M53.08 41.49a1 1 0 0 0 1 .69 1.12 1.12 0 0 0 .31 0A1 1 0 0 0 55 40.87l-2.34-7.23a1 1 0 1 0-1.9.61zM58.17 39.84a1 1 0 0 0 .95.69 1.18 1.18 0 0 0 .31-.05 1 1 0 0 0 .64-1.26L57.73 32a1 1 0 0 0-1.26-.64 1 1 0 0 0-.64 1.25zM15.88 56.68a3 3 0 1 0-3 3A3 3 0 0 0 15.88 56.68zm-4 0a1 1 0 1 1 1 1A1 1 0 0 1 11.86 56.68zM20.69 59.69a3 3 0 1 0-3-3A3 3 0 0 0 20.69 59.69zm0-4a1 1 0 1 1-1 1A1 1 0 0 1 20.69 55.67zM28.5 59.69a3 3 0 1 0-3-3A3 3 0 0 0 28.5 59.69zm0-4a1 1 0 1 1-1 1A1 1 0 0 1 28.5 55.67z"></path><path d="M91.34,31.67a6.33,6.33,0,0,0-3.85-11.91l-3-9.29a1,1,0,0,0-.63-.64A1,1,0,0,0,83,10L60.11,25.73,51.23,28.6a7.63,7.63,0,0,0-1,.42H11.3a1,1,0,0,0-1,1V47.33H6.18a1,1,0,0,0-1,1V65.56a1,1,0,0,0,1,1H10.3V79.34H9.16a4.15,4.15,0,0,0-3.41,1.58,2.72,2.72,0,0,0-.4,2.49l.84,2.53C7,88.46,10,90.22,13.3,90.22H80.36c3.35,0,6.27-1.76,7.11-4.28l.84-2.53a2.69,2.69,0,0,0-.4-2.49,4.15,4.15,0,0,0-3.41-1.58H83.36V42.51l10.06-.21a1,1,0,0,0,.8-.42,1,1,0,0,0,.13-.89Zm1.26-7a4.35,4.35,0,0,1-1.87,5.06l-2.62-8A4.33,4.33,0,0,1,92.6,24.69ZM48,35.13a5.62,5.62,0,0,1,2.88-4.23,5.06,5.06,0,0,1,.92-.39l8.08-2.62,4.21,13,.12.36-8.09,2.61a5.56,5.56,0,0,1-7-3.55l-.9-2.82A5.3,5.3,0,0,1,48,35.9,6.51,6.51,0,0,1,48,35.13Zm17,8,4.7,9.12-3.16,1-4.69-9.12ZM48.35,43l.12.15a8.29,8.29,0,0,0,.62.71l.11.12a7.07,7.07,0,0,0,.78.65l.19.13a6.52,6.52,0,0,0,.87.53l.08,0a7.6,7.6,0,0,0,.89.37l.22.07a8.08,8.08,0,0,0,1,.24l.21,0c.31,0,.62.06.94.07h.14a8.57,8.57,0,0,0,1-.07l.24,0a7.85,7.85,0,0,0,1-.25l3.13-1,5.24,10.17a1,1,0,0,0,.89.54,1,1,0,0,0,.3,0l5.09-1.65a1,1,0,0,0,.62-.57,1,1,0,0,0,0-.84l-4.88-9.5,8.31-.17V79.34H18.22V66.56h4.12l6.44,6.16a1.32,1.32,0,0,0,.29.19l.1,0a1,1,0,0,0,.24,0l.06,0h0a1.17,1.17,0,0,0,.37-.08,1,1,0,0,0,.59-1l-.17-5.4h4.08a1,1,0,0,0,1-1V48.33a1,1,0,0,0-1-1H18.22V36.92H46.08l0,0a7.27,7.27,0,0,0,.27,1.14l.9,2.82a8.28,8.28,0,0,0,.43,1l.1.21A8.69,8.69,0,0,0,48.35,43ZM66.56,81.35v2.43H27.11V81.35ZM12.3,31H47.7a.18.18,0,0,0-.05.07,1.71,1.71,0,0,0-.11.14c-.16.21-.3.42-.44.64L47,32a7.46,7.46,0,0,0-.4.8,1.34,1.34,0,0,1-.07.18,7.92,7.92,0,0,0-.26.78l0,.11a8.76,8.76,0,0,0-.18.89.68.68,0,0,1,0,.14H17.22a1,1,0,0,0-1,1V47.33H12.3ZM7.18,64.56V49.33h26.2V64.56H29.27a1,1,0,0,0-1,1l.13,4-5-4.75a1,1,0,0,0-.69-.27H7.18Zm9,2V79.34H12.3V66.56ZM84.5,81.34a2.25,2.25,0,0,1,1.79.75.76.76,0,0,1,.13.69l-.85,2.52c-.56,1.7-2.75,2.92-5.21,2.92H13.3c-2.46,0-4.65-1.22-5.21-2.92l-.84-2.52a.73.73,0,0,1,.12-.69,2.25,2.25,0,0,1,1.79-.75h16v3.43a1,1,0,0,0,1,1H67.56a1,1,0,0,0,1-1V81.35H84.5Zm-7.06-2V42.64l3.92-.08V79.34Zm-10-38.49-1.24,0-1-3.22L61.74,27,83,12.36l2.88,8.89h0l.59,1.83L92,40.33Z"></path><path d="M37.36,57.64a1,1,0,0,0-.56,1.7l6.72,6.55-1.58,9.25a1,1,0,0,0,1.45,1l8.3-4.36L60,76.19a1,1,0,0,0,.47.12,1.06,1.06,0,0,0,.59-.19,1,1,0,0,0,.39-1l-1.58-9.25,6.72-6.55a1,1,0,0,0-.56-1.7l-9.28-1.35-4.15-8.41a1,1,0,0,0-1.8,0l-4.15,8.41Zm10.84,0,3.49-7.07,3.49,7.07a1,1,0,0,0,.75.54l7.8,1.14-5.65,5.5a1,1,0,0,0-.28.88l1.33,7.77-7-3.67a1,1,0,0,0-.46-.11,1.12,1.12,0,0,0-.47.11l-7,3.67,1.33-7.77a1,1,0,0,0-.29-.88l-5.64-5.5,7.8-1.14A1,1,0,0,0,48.2,57.65Z"></path></svg>