<svg xmlns="http://www.w3.org/2000/svg" enable-background="new 0 0 64 64" viewBox="0 0 64 64" id="team"><path d="M32 29.6c2.6 0 5-4.2 5-7.6 0-3.3-2.2-5.9-5-5.9-2.8 0-5 2.6-5 5.9C27 25.4 29.4 29.6 32 29.6zM16.8 36.3c0-1.9.9-3.7 2.3-4.8l-4.4-1.1c0 0-3 2.8-3.5 2.8-.5 0-4-2.8-4-2.8l-5.1 1.4c-1.3.3-2.1 1.6-2.1 3v11.8c0 .7.5 1.3 1.1 1.3h15.7V36.3zM11.2 28.4c2 0 4.1-3.3 4.1-6.3 0-2.7-1.8-4.9-4.1-4.9-2.3 0-4.1 2.2-4.1 4.9C7.1 25.1 9.3 28.4 11.2 28.4zM52.8 29.1c2 0 4.1-3.3 4.1-6.3 0-2.7-1.8-4.9-4.1-4.9-2.3 0-4.1 2.2-4.1 4.9C48.6 25.8 50.8 29.1 52.8 29.1zM44.9 36.4c0-1.7-1.1-3.2-2.6-3.6l-6.5-1.6c0 0-3.4 3.8-3.8 3.9-.5 0-4.5-3.9-4.5-3.9l-5.9 1.6c-1.5.4-2.6 1.9-2.6 3.5v11.6h25.8V36.4zM61.8 32.5l-5.6-1.4c0 0-3 2.8-3.5 2.8-.5 0-4-2.8-4-2.8L45.3 32c1.1 1.1 1.8 2.6 1.8 4.3v11.5h16.7c.1-.2.1-.4.1-.6V35.5C64 34.1 63.1 32.8 61.8 32.5z"></path></svg>