<svg xmlns="http://www.w3.org/2000/svg" viewBox="0 0 512 512" id="team-management"><path fill-rule="evenodd" d="M94.878 328.757c-39.151 0-70.88 31.729-70.88 70.88 0 16.669 5.755 31.991 15.382 44.093 9.427-21.281 30.729-36.137 55.498-36.137 24.774 0 46.076 14.852 55.498 36.136 9.627-12.102 15.381-27.423 15.381-44.092.001-39.151-31.728-70.88-70.879-70.88zm.001 13.322c16.941 0 30.675 13.734 30.675 30.675 0 16.941-13.734 30.675-30.675 30.675-16.942 0-30.675-13.734-30.675-30.675-.001-16.942 13.733-30.675 30.675-30.675zM256.001 54.805c16.941 0 30.675 13.734 30.675 30.675 0 16.941-13.734 30.675-30.675 30.675-16.942 0-30.675-13.734-30.675-30.675-.001-16.941 13.733-30.675 30.675-30.675zM256 120.32c24.774 0 46.076 14.851 55.498 36.136 9.627-12.102 15.381-27.423 15.381-44.092 0-39.151-31.729-70.88-70.88-70.88s-70.88 31.729-70.88 70.88c0 16.669 5.755 31.991 15.382 44.093 9.428-21.281 30.73-36.137 55.499-36.137zm161.123 221.759c16.941 0 30.675 13.734 30.675 30.675 0 16.941-13.734 30.675-30.675 30.675-16.942 0-30.675-13.734-30.675-30.675 0-16.942 13.734-30.675 30.675-30.675zm0 65.514c24.774 0 46.076 14.852 55.498 36.136 9.627-12.102 15.381-27.423 15.381-44.092 0-39.151-31.729-70.88-70.88-70.88s-70.88 31.729-70.88 70.88c0 16.669 5.755 31.991 15.382 44.093 9.428-21.281 30.729-36.137 55.499-36.137zM256 275.592c17.133 0 31.023 13.889 31.023 31.023 0 17.133-13.889 31.023-31.023 31.023-17.133 0-31.023-13.89-31.023-31.023 0-17.134 13.89-31.023 31.023-31.023zm7.969-60.653v45.329a47.34 47.34 0 0 0-15.938 0v-45.329a104.548 104.548 0 0 0 15.938 0zm36.164 107.94 32.15 18.562a102.9 102.9 0 0 0-7.997 13.814l-32.145-18.559a46.969 46.969 0 0 0 7.992-13.817zm-80.284 13.805-32.142 18.557a102.717 102.717 0 0 0-7.982-13.787l32.147-18.56a46.994 46.994 0 0 0 7.977 13.79zM94.878 312.757c47.983 0 86.88 38.897 86.88 86.88s-38.897 86.88-86.88 86.88-86.88-38.897-86.88-86.88 38.897-86.88 86.88-86.88zM256 25.483c-47.983 0-86.88 38.897-86.88 86.88s38.897 86.88 86.88 86.88 86.88-38.897 86.88-86.88-38.898-86.88-86.88-86.88zm161.122 287.274c-47.983 0-86.88 38.897-86.88 86.88s38.897 86.88 86.88 86.88 86.88-38.897 86.88-86.88-38.897-86.88-86.88-86.88z" clip-rule="evenodd"></path></svg>