<svg xmlns="http://www.w3.org/2000/svg" viewBox="0 0 64 64" id="website"><path d="M59,1H5A4,4,0,0,0,1,5V59a4,4,0,0,0,4,4H59a4,4,0,0,0,4-4V5A4,4,0,0,0,59,1Zm2,4H59V3A2,2,0,0,1,61,5ZM51,5V3h2V5Zm4-2h2V5H55ZM5,3H49V5H3A2,2,0,0,1,5,3ZM59,61H5a2,2,0,0,1-2-2V7H61V59A2,2,0,0,1,59,61Z"></path><path d="M32 31A11 11 0 1021 20 11.013 11.013 0 0032 31zM24.657 14.814a13.49 13.49 0 002.825 1.4A15.194 15.194 0 0027.043 19H23.059A8.941 8.941 0 0124.657 14.814zM40.941 19H36.957a15.194 15.194 0 00-.439-2.786 13.414 13.414 0 002.824-1.4A8.939 8.939 0 0140.941 19zm-1.6 6.187a13.414 13.414 0 00-2.824-1.4A15.194 15.194 0 0036.957 21h3.984A8.939 8.939 0 0139.342 25.187zM32 11.6l.1.119a13.247 13.247 0 011.843 3.112 11.274 11.274 0 01-3.878 0A13.247 13.247 0 0131.9 11.72zM32 17a13.592 13.592 0 002.588-.258A13.211 13.211 0 0134.957 19H29.043a13.227 13.227 0 01.369-2.258A13.584 13.584 0 0032 17zm2.957 4a13.211 13.211 0 01-.369 2.258 13.109 13.109 0 00-5.176 0A13.227 13.227 0 0129.043 21zM32 25a11.579 11.579 0 011.939.168A13.247 13.247 0 0132.1 28.28L32 28.4l-.1-.119a13.247 13.247 0 01-1.843-3.112A11.57 11.57 0 0132 25zm-2.264 3.7A8.981 8.981 0 0126 26.693a11.37 11.37 0 012.112-1.011A15.232 15.232 0 0029.736 28.7zm6.148-3.017A11.4 11.4 0 0138 26.693 8.981 8.981 0 0134.264 28.7 15.252 15.252 0 0035.884 25.683zm0-11.366a15.252 15.252 0 00-1.62-3.017A8.981 8.981 0 0138 13.307 11.4 11.4 0 0135.884 14.317zm-7.768 0A11.37 11.37 0 0126 13.307 8.981 8.981 0 0129.736 11.3 15.232 15.232 0 0028.116 14.318zM27.043 21a15.194 15.194 0 00.439 2.786 13.49 13.49 0 00-2.825 1.4A8.941 8.941 0 0123.059 21zM32.814 41.417a1.037 1.037 0 00-1.628 0l-5 7A1 1 0 0027 50a2 2 0 012 2v1H28a1 1 0 00-1 1v4a1 1 0 001 1h8a1 1 0 001-1V54a1 1 0 00-1-1H35V52a2 2 0 012-2 1 1 0 00.814-1.581zM35 57H29V55h6zm-2-5v1H31V52a4 4 0 00-2.321-3.63L31 45.12V48h2V45.12l2.321 3.25A4 4 0 0033 52z"></path><path d="M53,33H49a1,1,0,0,0-1,1v1H35V34a1,1,0,0,0-1-1H30a1,1,0,0,0-1,1v1H16V34a1,1,0,0,0-1-1H11a1,1,0,0,0-1,1v4a1,1,0,0,0,1,1h4a1,1,0,0,0,1-1V37h5.017a17.006,17.006,0,0,0-8.966,14H11a1,1,0,0,0-1,1v4a1,1,0,0,0,1,1h4a1,1,0,0,0,1-1V52a1,1,0,0,0-1-1h-.949A15.007,15.007,0,0,1,29,37v1a1,1,0,0,0,1,1h4a1,1,0,0,0,1-1V37A15.007,15.007,0,0,1,49.949,51H49a1,1,0,0,0-1,1v4a1,1,0,0,0,1,1h4a1,1,0,0,0,1-1V52a1,1,0,0,0-1-1H51.949a17.006,17.006,0,0,0-8.966-14H48v1a1,1,0,0,0,1,1h4a1,1,0,0,0,1-1V34A1,1,0,0,0,53,33ZM14,37H12V35h2Zm0,18H12V53h2ZM33,37H31V35h2ZM52,55H50V53h2Zm0-18H50V35h2Z"></path></svg>